<?xml version="1.0" encoding="utf-8"?>
<!-- Generator: Adobe Illustrator 27.5.0, SVG Export Plug-In . SVG Version: 6.00 Build 0)  -->
<svg version="1.1" id="BASE" xmlns="http://www.w3.org/2000/svg" xmlns:xlink="http://www.w3.org/1999/xlink" x="0px" y="0px"
	 viewBox="0 0 2122 2122" style="enable-background:new 0 0 2122 2122;" xml:space="preserve">
<g>
	<circle style="fill:#FFDE18;" cx="1060.66" cy="1060.66" r="919.232"/>
	
		<ellipse transform="matrix(0.7071 -0.7071 0.7071 0.7071 -434.6316 1099.1659)" style="fill:#FFEF09;" cx="1109.495" cy="1074.23" rx="797.313" ry="797.313"/>
	<path style="fill:#010209;" d="M689.899,569.18c47.454-25.902,74.749-65.198,60.965-87.77
		c-13.785-22.572-63.428-19.872-110.883,6.03c-47.454,25.902-74.749,65.198-60.965,87.77
		C592.801,597.782,642.445,595.082,689.899,569.18z"/>
	<path style="fill:#010209;" d="M1431.421,569.18c47.454,25.901,97.098,28.601,110.882,6.03
		c13.784-22.572-13.51-61.867-60.965-87.77c-47.455-25.902-97.098-28.601-110.882-6.03
		C1356.672,503.983,1383.967,543.278,1431.421,569.18z"/>
	<path style="fill:#FDC322;" d="M1565.257,733.703c1.344-1.188,2.651-2.417,3.916-3.685c15.749-15.724,25.538-37.613,25.53-61.633
		c0-8.672-7.031-15.703-15.703-15.703c-8.673,0-15.703,7.03-15.703,15.703h-0.001c-0.009,15.445-6.217,29.285-16.331,39.424
		c-10.139,10.114-23.978,16.323-39.424,16.33c-15.447-0.007-29.286-6.216-39.424-16.33c-10.113-10.139-16.322-23.979-16.33-39.424
		c0-8.672-7.03-15.703-15.703-15.703c-8.673,0-15.703,7.03-15.703,15.703c-0.01,24.019,9.778,45.909,25.527,61.632
		c5.394,5.402,11.513,10.103,18.194,13.947c-59.282,19.291-100.269,60.679-100.269,108.626c0,30.937,17.065,59.143,45.097,80.445
		c-0.114,1.217-0.236,2.433-0.364,3.645c-7.577,71.694-36.74,136.871-80.996,189.012l-0.011,0.013
		c-12.136,14.328-25.45,27.674-39.76,39.879l-0.018,0.016c-17.286,14.79-35.998,27.915-55.96,39.114
		c-3.416,1.904-6.824,3.744-10.297,5.556c-48.149,24.999-102.788,39.117-160.878,39.121
		c-57.188-0.004-111.053-13.703-158.664-37.984l-0.033-0.017c-4.183-2.122-8.306-4.333-12.368-6.632l-0.046-0.026
		c-19.961-11.213-38.715-24.318-55.992-39.101c-14.316-12.241-27.608-25.592-39.791-39.941
		c-44.255-52.14-73.419-117.316-80.997-189.006c-0.129-1.214-0.249-2.43-0.365-3.648c28.033-21.302,45.098-49.509,45.098-80.447
		c0-47.949-40.99-89.338-100.275-108.628c6.68-3.844,12.798-8.544,18.19-13.945c15.749-15.723,25.537-37.613,25.529-61.632
		c0-8.673-7.031-15.703-15.703-15.703c-8.673,0-15.703,7.031-15.703,15.703h-0.001c-0.008,15.445-6.216,29.285-16.33,39.424
		c-10.14,10.114-23.979,16.323-39.424,16.33c-15.446-0.007-29.285-6.216-39.425-16.33c-10.114-10.139-16.322-23.979-16.33-39.424
		c0-8.673-7.031-15.703-15.703-15.703c-8.673,0-15.703,7.031-15.703,15.703c-0.008,24.019,9.78,45.909,25.529,61.632
		c1.266,1.269,2.573,2.497,3.917,3.686c-84.6,8.594-149.513,58.547-149.513,118.887c0,66.383,78.562,120.196,175.473,120.196
		c37.527,0,72.3-8.071,100.828-21.814c9.964,73.799,41.027,140.939,86.966,195.045c13.258,15.614,27.731,30.153,43.318,43.481
		c18.837,16.118,39.278,30.4,61.026,42.617l-0.046-0.026c4.477,2.534,9.018,4.971,13.624,7.305
		c51.883,26.467,110.7,41.408,172.915,41.405c63.202,0.004,122.882-15.4,175.36-42.66l0.026-0.013
		c3.742-1.952,7.42-3.938,11.094-5.986l0.035-0.02c21.801-12.228,42.212-26.548,61.038-42.657l-0.018,0.017
		c15.591-13.298,30.103-27.842,43.344-43.476l-0.012,0.013c45.939-54.106,77.002-121.245,86.965-195.046
		c28.528,13.744,63.302,21.814,100.829,21.814c96.91,0,175.472-53.814,175.472-120.196
		C1714.778,792.249,1649.862,742.295,1565.257,733.703z"/>
	<path style="fill:#010209;" d="M1441.885,902.797c0.072-8.673-6.899-15.762-15.571-15.835c-8.674-0.073-15.763,6.899-15.834,15.571
		c-0.088,10.311-0.599,20.481-1.551,30.503c-0.114,1.217-0.236,2.433-0.364,3.645c-7.577,71.694-36.74,136.871-80.996,189.012
		l-0.011,0.013c-12.136,14.328-25.45,27.674-39.76,39.879l-0.018,0.016c-17.286,14.79-35.998,27.915-55.96,39.114
		c-3.416,1.904-6.824,3.744-10.297,5.556c-48.149,24.999-102.788,39.117-160.878,39.121
		c-57.188-0.004-111.053-13.703-158.664-37.984l-0.033-0.017c-4.183-2.122-8.306-4.333-12.368-6.632l-0.046-0.026
		c-19.961-11.213-38.715-24.318-55.992-39.101c-14.316-12.241-27.608-25.592-39.791-39.941
		c-44.255-52.14-73.419-117.316-80.997-189.006c-0.129-1.214-0.249-2.43-0.365-3.648c-0.95-10.024-1.462-20.193-1.549-30.506
		c-0.073-8.673-7.164-15.643-15.836-15.57c-8.673,0.073-15.643,7.164-15.569,15.836h0c0.106,12.529,0.788,24.932,2.086,37.192
		c0.389,3.677,0.83,7.338,1.322,10.984c9.964,73.799,41.027,140.939,86.966,195.045c13.258,15.614,27.731,30.153,43.318,43.481
		c18.837,16.118,39.278,30.4,61.026,42.617l-0.046-0.026c4.477,2.534,9.018,4.971,13.624,7.305
		c51.883,26.467,110.7,41.408,172.915,41.405c63.202,0.004,122.882-15.4,175.36-42.66l0.026-0.013
		c3.742-1.952,7.42-3.938,11.094-5.986l0.035-0.02c21.801-12.228,42.212-26.548,61.038-42.657l-0.018,0.017
		c15.591-13.298,30.103-27.842,43.344-43.476l-0.012,0.013c45.939-54.106,77.002-121.245,86.965-195.046
		c0.492-3.646,0.933-7.309,1.322-10.988C1441.097,927.732,1441.779,915.328,1441.885,902.797z"/>
	<path style="fill:#010209;" d="M1565.257,733.703c1.344-1.188,2.651-2.417,3.916-3.685c15.749-15.724,25.538-37.613,25.53-61.633
		c0-8.672-7.031-15.703-15.703-15.703c-8.673,0-15.703,7.03-15.703,15.703h-0.001c-0.009,15.445-6.217,29.285-16.331,39.424
		c-10.139,10.114-23.978,16.323-39.424,16.33c-15.447-0.007-29.286-6.216-39.424-16.33c-10.113-10.139-16.322-23.979-16.33-39.424
		c0-8.672-7.03-15.703-15.703-15.703c-8.673,0-15.703,7.03-15.703,15.703c-0.01,24.019,9.778,45.909,25.527,61.632
		c5.394,5.402,11.513,10.103,18.194,13.947c12.798,7.364,27.657,11.587,43.439,11.583
		C1529.625,755.555,1549.91,747.279,1565.257,733.703z"/>
	<path style="fill:#010209;" d="M657.212,743.963c6.68-3.844,12.798-8.544,18.19-13.945c15.749-15.723,25.537-37.613,25.529-61.632
		c0-8.673-7.031-15.703-15.703-15.703c-8.673,0-15.703,7.031-15.703,15.703h-0.001c-0.008,15.445-6.216,29.285-16.33,39.424
		c-10.14,10.114-23.979,16.323-39.424,16.33c-15.446-0.007-29.285-6.216-39.425-16.33c-10.114-10.139-16.322-23.979-16.33-39.424
		c0-8.673-7.031-15.703-15.703-15.703c-8.673,0-15.703,7.031-15.703,15.703c-0.008,24.019,9.78,45.909,25.529,61.632
		c1.266,1.269,2.573,2.497,3.917,3.686c15.347,13.575,35.63,21.85,57.716,21.843C629.552,755.552,644.414,751.329,657.212,743.963z"
		/>
</g>
</svg>
